<svg width="13" height="15" fill="none" xmlns="http://www.w3.org/2000/svg"><path fill-rule="evenodd" clip-rule="evenodd" d="M3.688.024c-.143.04-.329.232-.37.383a.597.597 0 00.263.673l.116.07 3.596.014 3.596.015.228.11c.275.132.446.302.58.574l.095.196.015 4.666.015 4.666.072.112a.78.78 0 00.194.19c.102.066.156.08.323.08s.221-.014.323-.08a.763.763 0 00.194-.19L13 11.39V6.68c0-4.307-.004-4.725-.05-4.886-.133-.462-.33-.802-.643-1.11a2.63 2.63 0 00-.796-.519c-.47-.17-.185-.16-4.114-.165C5.16-.003 3.75.006 3.688.024zM1.96 2.41C.943 2.613.187 3.377.028 4.363c-.026.163-.032 1.327-.025 4.46.01 4.622-.003 4.27.174 4.73.2.52.788 1.091 1.324 1.286.466.17.249.16 3.797.16s3.33.01 3.797-.16c.536-.195 1.122-.765 1.323-1.286.177-.458.166-.125.166-4.862 0-3.964-.005-4.358-.05-4.519-.133-.462-.33-.802-.644-1.11a2.63 2.63 0 00-.795-.519c-.469-.17-.225-.16-3.722-.165-2.571-.005-3.256.002-3.413.033zm6.71 1.24c.28.13.456.295.592.562l.112.222v8.516l-.112.222a1.15 1.15 0 01-.592.562l-.202.093H2.126l-.202-.093a1.15 1.15 0 01-.591-.562l-.113-.222V4.436l.095-.196c.053-.108.152-.254.22-.326.133-.14.407-.297.595-.34.068-.016 1.413-.026 3.228-.023l3.111.005.202.093z" fill="#000" fill-opacity=".3"/></svg>