<svg width="60" height="61" fill="none" xmlns="http://www.w3.org/2000/svg"><circle cx="30.044" cy="30.043" r="23.471" fill="#fff"/><path fill-rule="evenodd" clip-rule="evenodd" d="M27.748.057C23.394.474 20.084 1.4 16.467 3.214 11.707 5.602 7.293 9.652 4.39 14.297 2.294 17.65.765 21.987.147 26.327c-.196 1.38-.196 6.012 0 7.393.492 3.456 1.406 6.485 2.833 9.388 1.615 3.286 3.197 5.493 5.808 8.104 2.583 2.583 4.825 4.196 7.987 5.747 2.207 1.083 3.631 1.61 5.868 2.17 5.87 1.473 11.756 1.19 17.49-.838 1.739-.615 4.773-2.136 6.333-3.174 4.284-2.85 7.823-6.785 10.167-11.303 2.12-4.088 3.182-8.143 3.347-12.794.178-5.005-.85-9.768-3.078-14.246-1.462-2.94-3.09-5.244-5.375-7.61-2.535-2.622-5.021-4.432-8.347-6.075C39.704 1.37 36.465.455 32.618.099c-1.195-.11-3.914-.134-4.87-.042zM37.93 16.606l.03 2.954-2.143.038c-3.241.059-3.258.076-3.258 3.321v2.058h2.757c1.517 0 2.758.015 2.758.035 0 .019-.132 1.292-.293 2.828-.161 1.537-.293 2.894-.293 3.017 0 .211-.123.222-2.465.222h-2.465v14.552h-7.276V31.08H21.88v-6.102h3.376l.058-2.729c.064-3.089.186-3.75.963-5.229.966-1.837 2.734-3.002 5.01-3.3.41-.054 2.065-.091 3.678-.083l2.934.016.032 2.954z" fill="#3B5AB9"/></svg>