<svg width="60" height="60" fill="none" xmlns="http://www.w3.org/2000/svg"><circle cx="30" cy="30" r="30" fill="url(#paint0_linear_141_100)"/><path fill-rule="evenodd" clip-rule="evenodd" d="M21.447 15.086c-1.678.25-3.002.92-4.223 2.137-1.242 1.237-1.93 2.639-2.158 4.392-.088.685-.088 16.081 0 16.767.227 1.752.912 3.145 2.16 4.392 1.247 1.248 2.64 1.933 4.391 2.16.686.088 16.08.088 16.766 0 1.751-.227 3.144-.912 4.392-2.16 1.247-1.248 1.932-2.64 2.159-4.392.088-.686.088-16.082 0-16.767-.227-1.753-.916-3.155-2.158-4.392-1.255-1.251-2.644-1.934-4.393-2.16-.75-.097-16.272-.076-16.936.023zm17.497 5.134c1.267.603 1.401 2.393.237 3.175-.418.282-.682.354-1.178.321-.679-.044-1.225-.401-1.548-1.012-.134-.254-.155-.365-.156-.82-.002-.62.117-.925.511-1.32.299-.298.508-.412.923-.502.432-.094.777-.049 1.21.158zM31.2 23.884a6.188 6.188 0 014.378 3.331c.451.906.641 1.732.641 2.783 0 1.653-.568 3.097-1.68 4.27-1.222 1.29-2.762 1.951-4.54 1.951-3.015 0-5.494-2.033-6.122-5.02-.13-.623-.13-1.779 0-2.402.256-1.217.767-2.21 1.582-3.069.518-.546.955-.883 1.567-1.208 1.348-.715 2.686-.919 4.174-.636z" fill="#fff"/><defs><linearGradient id="paint0_linear_141_100" x1="50.625" y1="6.563" x2="8.438" y2="53.906" gradientUnits="userSpaceOnUse"><stop stop-color="#B658FF"/><stop offset=".479" stop-color="#FF8787"/><stop offset=".978" stop-color="#FFCF87"/></linearGradient></defs></svg>