<svg width="140" height="44" fill="none" xmlns="http://www.w3.org/2000/svg"><path d="M59.673 20.42a.63.63 0 00.44-.163.544.544 0 00.18-.43V11.12l2.546 4.719a.99.99 0 00.83.544h1.282a.927.927 0 00.836-.544l2.568-4.72v8.71a.615.615 0 00.597.593h3.02a.63.63 0 00.44-.163.545.545 0 00.178-.43V4.348a.616.616 0 00-.619-.626h-2.714a.889.889 0 00-.858.544l-4.116 7.348-4.061-7.348a.892.892 0 00-.858-.544h-2.715a.613.613 0 00-.62.62v15.486a.546.546 0 00.18.43.63.63 0 00.44.163h3.024zm19.607 0a.63.63 0 00.44-.163.544.544 0 00.179-.43v-4.082h4.045v4.083a.545.545 0 00.18.43c.119.11.277.168.439.163h2.97a.542.542 0 00.429-.18.578.578 0 00.168-.413V8.62a.578.578 0 00-.168-.43.587.587 0 00-.43-.163h-2.97a.618.618 0 00-.439.163.544.544 0 00-.18.43v3.892H79.9V8.62a.546.546 0 00-.18-.43.629.629 0 00-.44-.163h-2.975a.591.591 0 00-.412.163.543.543 0 00-.18.43v11.213a.616.616 0 00.592.593h2.976v-.005zm17.478.24c1.998 0 3.533-.464 4.604-1.393a5.401 5.401 0 001.749-3.974c.032-.413.043-.767.043-1.088 0-.321 0-.659-.043-1.089a5.337 5.337 0 00-1.798-3.946c-1.085-.947-2.604-1.42-4.555-1.42-1.951 0-3.464.484-4.54 1.453a5.338 5.338 0 00-1.797 3.946v2.161a5.417 5.417 0 001.749 3.973c1.057.922 2.586 1.38 4.588 1.377zm0-3.004a1.711 1.711 0 01-1.45-.61 3.316 3.316 0 01-.543-1.872v-1.905a3.348 3.348 0 01.543-1.862 2.01 2.01 0 012.238-.458c.25.106.474.262.662.458.36.553.55 1.2.543 1.862v1.905a3.315 3.315 0 01-.543 1.872 1.715 1.715 0 01-1.45.61zm12.228 2.765a.627.627 0 00.439-.163.542.542 0 00.18-.43v-8.562h4.447a.54.54 0 00.428-.18.599.599 0 00.163-.42V8.62a.54.54 0 00-.356-.563.544.544 0 00-.235-.03h-8.042a.601.601 0 00-.418.163.58.58 0 00-.174.43v11.213a.604.604 0 00.592.593h2.976v-.005zm13.031.24c1.998 0 3.533-.465 4.604-1.394a5.401 5.401 0 001.749-3.974c.032-.413.043-.767.043-1.088 0-.321 0-.659-.043-1.089a5.337 5.337 0 00-1.798-3.946c-1.086-.947-2.604-1.42-4.555-1.42-1.951 0-3.47.473-4.556 1.42a5.348 5.348 0 00-1.797 3.946v2.162a5.424 5.424 0 001.748 3.972c1.072.944 2.607 1.414 4.605 1.41zm0-3.005a1.728 1.728 0 01-1.455-.61 3.317 3.317 0 01-.543-1.872l-.027-.953.027-.952a3.35 3.35 0 01.543-1.862 2.009 2.009 0 012.905 0c.358.554.547 1.201.543 1.862v1.905a3.36 3.36 0 01-.543 1.872 1.734 1.734 0 01-1.445.61h-.005zm-54.66 23.002a.542.542 0 00.428-.18.6.6 0 00.163-.419V28.852a.544.544 0 00-.592-.593h-9.513a.597.597 0 00-.556.358.546.546 0 00-.04.235v3.413a14.886 14.886 0 01-.332 3.745 1.481 1.481 0 01-1.287 1.235.857.857 0 00-.429.207.546.546 0 00-.163.392v2.177a.618.618 0 00.174.441.603.603 0 00.445.18 6.62 6.62 0 003.437-.73 3.93 3.93 0 001.63-2.405 18.77 18.77 0 00.477-4.807v-1.219h2.541v8.562a.546.546 0 00.18.43.609.609 0 00.439.169h2.976l.021.016zm9.37.24c1.999 0 3.534-.467 4.605-1.4a5.394 5.394 0 001.749-3.967c.032-.414.048-.773.048-1.089 0-.316 0-.659-.048-1.089a5.374 5.374 0 00-1.798-3.951c-1.086-.94-2.604-1.412-4.555-1.415-1.951-.004-3.47.468-4.556 1.415a5.36 5.36 0 00-1.797 3.951v2.162a5.405 5.405 0 001.749 3.967c1.09.947 2.606 1.416 4.604 1.416zm0-3.005a1.73 1.73 0 01-1.449-.61 3.332 3.332 0 01-.543-1.872V33.5a3.343 3.343 0 01.543-1.856 2.01 2.01 0 012.238-.458c.249.107.474.262.662.458a3.35 3.35 0 01.543 1.856v1.911c.01.664-.18 1.317-.543 1.872a1.734 1.734 0 01-1.45.61zm14.406 3.005a7.272 7.272 0 003.567-.79 5.52 5.52 0 002.08-1.823 3.49 3.49 0 00.657-1.775.547.547 0 00-.19-.408.645.645 0 00-.43-.169h-3.186a.623.623 0 00-.402.12 1.087 1.087 0 00-.266.381 2.178 2.178 0 01-.652.99c-.319.219-.7.324-1.086.3a1.712 1.712 0 01-1.406-.582 2.999 2.999 0 01-.5-1.83V33.62c.047-1.622.683-2.433 1.906-2.433.376-.015.746.094 1.053.31.315.255.55.595.68.98.058.146.149.276.265.381a.59.59 0 00.402.12h3.187a.629.629 0 00.45-.18.5.5 0 00.17-.44 3.75 3.75 0 00-.74-1.846 5.58 5.58 0 00-2.073-1.753 7.382 7.382 0 00-3.475-.74 6.506 6.506 0 00-4.398 1.454 5.303 5.303 0 00-1.787 4.027v1.933a5.383 5.383 0 001.797 4.022 6.506 6.506 0 004.377 1.443zm14.296 0c1.998 0 3.533-.467 4.605-1.4a5.4 5.4 0 001.748-3.967c.032-.414.043-.773.043-1.089 0-.316 0-.659-.043-1.089a5.365 5.365 0 00-1.797-3.951c-1.086-.94-2.605-1.412-4.556-1.415-1.951-.004-3.459.479-4.523 1.447a5.36 5.36 0 00-1.797 3.952v2.161a5.405 5.405 0 001.748 3.968c1.057.918 2.585 1.379 4.583 1.383h-.011zm0-3.005a1.73 1.73 0 01-1.45-.61 3.341 3.341 0 01-.543-1.872V33.5a3.356 3.356 0 01.543-1.856 2.017 2.017 0 011.45-.62 2.004 2.004 0 011.45.62 3.34 3.34 0 01.543 1.856v1.911c.01.664-.18 1.317-.543 1.872a1.735 1.735 0 01-1.439.61h-.011zm14.416 3.005a7.27 7.27 0 003.567-.79 5.518 5.518 0 002.08-1.823 3.5 3.5 0 00.657-1.775.546.546 0 00-.19-.408.657.657 0 00-.429-.169h-3.176a.652.652 0 00-.408.12c-.111.108-.2.238-.26.381a2.179 2.179 0 01-.652.99 1.74 1.74 0 01-1.086.3 1.707 1.707 0 01-1.401-.582 3.001 3.001 0 01-.499-1.83V33.62c.047-1.622.68-2.433 1.9-2.433.387-.021.769.088 1.086.31.313.257.548.596.679.98.058.144.147.274.26.381a.62.62 0 00.408.12h3.187a.627.627 0 00.451-.18.507.507 0 00.168-.44 3.747 3.747 0 00-.739-1.846 5.58 5.58 0 00-2.117-1.753 7.381 7.381 0 00-3.475-.74 6.508 6.508 0 00-4.404 1.454 5.325 5.325 0 00-1.781 4.028v1.932a5.369 5.369 0 001.798 4.022 6.504 6.504 0 004.387 1.443h-.011zm11.658-.24a.542.542 0 00.542-.36l1.928-3.575h1.629v3.336a.541.541 0 00.179.43.618.618 0 00.44.169h3.068a.54.54 0 00.429-.18.573.573 0 00.168-.419V28.852a.577.577 0 00-.168-.43.594.594 0 00-.429-.163h-5.777a5.812 5.812 0 00-3.747 1.088 3.766 3.766 0 00-1.347 3.114c-.01.728.177 1.445.543 2.074a3.755 3.755 0 001.526 1.404l-2.356 3.913a.543.543 0 00-.12.332.466.466 0 00.147.338.508.508 0 00.38.141h2.997l-.032-.005zm4.186-6.771h-2.025a1.58 1.58 0 01-1.152-.387 1.393 1.393 0 01-.39-1.045 1.264 1.264 0 01.39-1.04 1.92 1.92 0 011.222-.32h1.955v2.792z" fill="#000"/><path d="M15.47.94H29c5.088 0 6.929.545 8.791 1.53a10.389 10.389 0 014.311 4.321c.994 1.867 1.526 3.713 1.526 8.813v13.564c0 5.1-.543 6.945-1.526 8.812a10.388 10.388 0 01-4.31 4.322c-1.863.996-3.704 1.53-8.791 1.53H15.47c-5.088 0-6.928-.545-8.79-1.53a10.388 10.388 0 01-4.312-4.322c-.994-1.867-1.52-3.712-1.52-8.812V15.604c0-5.1.543-6.946 1.52-8.813A10.389 10.389 0 016.679 2.47C8.542 1.474 10.382.94 15.47.94z" fill="#fff"/><path fill-rule="evenodd" clip-rule="evenodd" d="M42.102 6.791c.19.354.36.717.51 1.09a2.672 2.672 0 01-1.759.543 2.638 2.638 0 01-1.976-.745 3.145 3.145 0 01-.771-2.074V2.633a10.374 10.374 0 013.996 4.158zm-34.044.512c-.59 0-1.157.235-1.574.654a2.234 2.234 0 001.574 3.81c.59 0 1.157-.236 1.574-.654a2.234 2.234 0 00-1.574-3.81zM3.606 19.185a2.617 2.617 0 011.954.74 3.27 3.27 0 01.793 2.303l.033 1.137v1.715l-.033 1.002a3.27 3.27 0 01-.776 2.275 2.605 2.605 0 01-1.955.745 2.627 2.627 0 01-1.976-.745 3.134 3.134 0 01-.766-2.074v-4.055a3.314 3.314 0 01.776-2.28 2.647 2.647 0 011.966-.763h-.016zm37.231 0a2.595 2.595 0 011.971.74 3.27 3.27 0 01.771 2.303l.038 1.137v1.715l-.032 1.002a3.27 3.27 0 01-.777 2.264 2.583 2.583 0 01-1.95.746 2.616 2.616 0 01-1.976-.746 3.134 3.134 0 01-.77-2.074v-4.044a3.27 3.27 0 01.776-2.28 2.637 2.637 0 011.965-.763h-.016zm-18.662-3.538c-2.215 0-3.969.554-5.261 1.66-1.292 1.107-1.982 2.684-2.069 4.73v4.202c.076 2.09.755 3.678 2.036 4.763 1.282 1.085 3.043 1.63 5.283 1.633a9.752 9.752 0 003.752-.686 6.028 6.028 0 002.623-1.981 5.218 5.218 0 001.01-3.064.453.453 0 00-.152-.354.542.542 0 00-.207-.12h-3.605a.673.673 0 00-.385.125.773.773 0 00-.229.37l-.032.115a2.722 2.722 0 01-1 1.6c-.53.334-1.149.5-1.775.473-1.72 0-2.633-.93-2.747-2.787v-4.169c.058-1.981.975-2.972 2.753-2.972a3.116 3.116 0 011.775.457c.513.412.866.99 1 1.633.044.184.138.351.27.485.082.064.18.104.283.114h3.622a.509.509 0 00.282-.136.45.45 0 00.152-.354 5.207 5.207 0 00-1.01-3.064 6.028 6.028 0 00-2.622-1.981 9.75 9.75 0 00-3.747-.692zm8.617 24.13v4.027h-2.644a1.86 1.86 0 01-1.265-.5 1.988 1.988 0 01-.494-1.454 2.18 2.18 0 01.515-1.519 1.708 1.708 0 011.13-.544h2.731l.027-.01zM25.76.94v10.298a.607.607 0 00.418.474h3.485a.591.591 0 00.336-.158.538.538 0 00.158-.261V.957h.966l.598.027.543.032c.45.033.863.077 1.248.126v4.387c.076 2.108.759 3.705 2.047 4.79 1.29 1.084 3.047 1.629 5.273 1.632a10.58 10.58 0 002.622-.304c0 .245.044.5.06.767l.032.544v3.027a9.784 9.784 0 00-2.774-.37c-2.2 0-3.955.562-5.261 1.687a6.14 6.14 0 00-2.047 4.54v4.338c.076 2.108.758 3.704 2.047 4.79 1.288 1.084 3.046 1.629 5.272 1.632.906.01 1.81-.098 2.688-.32a13.216 13.216 0 01-1.13 5.061l-.147.305-.162.305a10.784 10.784 0 01-6.825 5.361v-6.428a.545.545 0 00-.419-.484l-.124-.022h-6.712a7.846 7.846 0 00-3.17.691 5.053 5.053 0 00-2.216 1.949 5.452 5.452 0 00-.75 2.852 5.782 5.782 0 00.316 1.954h-8.818l-.543-.027-.505-.033-.483-.033-.45-.049c-.511-.054-.973-.12-1.39-.196l-.354-.07-.331-.076c-.109 0-.217-.055-.315-.088l-.304-.087-.429-.141-.271-.104v-.234c.058-1.981.975-2.972 2.752-2.972a3.052 3.052 0 011.776.463l.233.158c.425.285.785.656 1.06 1.088l.091.17c.267.5.543.544.723.544h.211a.599.599 0 00.136-.039l.109-.049.206-.108.272-.147.33-.19.544-.322.472-.294a1.158 1.158 0 00.543-1.165c-.06-.582-1.374-1.845-2.595-2.558l-.283-.163-.271-.153a6.692 6.692 0 00-3.258-.794h-.793a7.39 7.39 0 00-4.74 1.72 5.53 5.53 0 00-1.59 2.275 10.377 10.377 0 01-1.478-2.107l-.157-.304-.147-.37a13.09 13.09 0 01-1.129-5.063c.878.223 1.782.33 2.688.322 2.231 0 3.98-.545 5.261-1.633 1.282-1.089 1.955-2.684 2.036-4.79v-4.072c-.065-2.079-.753-3.68-2.063-4.8-1.31-1.122-3.055-1.684-5.234-1.688a9.748 9.748 0 00-2.775.365v-2.727l.027-.506.033-.485v-.228l.038-.441.043-.414.055-.397c0-.06 0-.125.027-.185l.06-.365c0-.12.037-.234.065-.348l.065-.327.076-.31.081-.3.044-.14.087-.279c0-.049.032-.092.043-.136l.098-.266.103-.256.049-.125.114-.245.114-.245.12-.24.119-.24a10.405 10.405 0 014.316-4.321L7 2.301l.245-.114.239-.115.124-.054.256-.103.124-.05.267-.097.271-.093.282-.082.299-.081.315-.076.326-.071.342-.066.364-.054.184-.027.396-.055.419-.043.44-.038.46-.038.495-.028h4.382a20.391 20.391 0 01-.462 4.665l-.054.212c-.342 1.241-.934 1.933-1.765 2.074a.651.651 0 00-.543.452v2.858c.02.132.083.255.18.348a.61.61 0 00.428.19c1.787-.032 3.144-.402 4.078-1.088a5.479 5.479 0 001.922-3.266c.354-1.792.525-3.616.51-5.443V.94h4.236z" fill="#FF5700"/></svg>