<svg width="140" height="44" viewBox="0 0 140 44" fill="none" xmlns="http://www.w3.org/2000/svg">
<path d="M59.6732 20.4208C59.8353 20.4251 59.9928 20.3666 60.113 20.2575C60.1728 20.2036 60.2198 20.137 60.2508 20.0627C60.2818 19.9883 60.2959 19.908 60.2922 19.8275V19.8275V11.1186L62.8387 15.8377C62.917 15.9938 63.0351 16.1264 63.181 16.222C63.3269 16.3176 63.4954 16.3728 63.6694 16.382H64.9509C65.1274 16.3804 65.2999 16.3283 65.448 16.2319C65.5961 16.1355 65.7137 15.9988 65.787 15.8377V15.8377L68.3553 11.1186V19.8275C68.3607 19.984 68.4256 20.1326 68.5366 20.2428C68.6476 20.3531 68.7963 20.4167 68.9525 20.4208H71.9714C72.1335 20.4251 72.2911 20.3666 72.4112 20.2575C72.471 20.2036 72.5181 20.137 72.5491 20.0627C72.58 19.9883 72.5942 19.908 72.5904 19.8275V4.34747C72.5919 4.26533 72.5769 4.18373 72.5464 4.10748C72.5159 4.03124 72.4704 3.96189 72.4127 3.90355C72.355 3.8452 72.2862 3.79903 72.2104 3.76777C72.1347 3.73651 72.0534 3.72078 71.9714 3.72152H69.2566C69.0753 3.71382 68.896 3.76183 68.7427 3.8591C68.5894 3.95638 68.4694 4.09829 68.3987 4.26583V4.26583L64.283 11.6139L60.2216 4.26583C60.151 4.09829 60.0309 3.95638 59.8776 3.8591C59.7243 3.76183 59.545 3.71382 59.3637 3.72152H56.6489C56.5674 3.7208 56.4866 3.73635 56.4111 3.76728C56.3357 3.7982 56.2672 3.84388 56.2096 3.90165C56.1519 3.95941 56.1064 4.0281 56.0755 4.10371C56.0447 4.17933 56.0292 4.26034 56.0299 4.34203V4.34203V19.8275C56.0261 19.908 56.0403 19.9883 56.0712 20.0627C56.1022 20.137 56.1493 20.2036 56.2091 20.2575C56.3292 20.3666 56.4868 20.4251 56.6489 20.4208H59.646H59.6732ZM79.2798 20.4208C79.4419 20.4251 79.5994 20.3666 79.7196 20.2575C79.7794 20.2036 79.8264 20.137 79.8574 20.0627C79.8884 19.9883 79.9025 19.908 79.8988 19.8275V19.8275V15.7452H83.9439V19.8275C83.9401 19.908 83.9543 19.9883 83.9853 20.0627C84.0163 20.137 84.0633 20.2036 84.1231 20.2575C84.2426 20.3676 84.4006 20.4263 84.5629 20.4208H87.5329C87.6132 20.4245 87.6934 20.4104 87.7675 20.3793C87.8417 20.3482 87.9081 20.301 87.9619 20.2411C88.0159 20.1869 88.0587 20.1223 88.0876 20.0513C88.1165 19.9803 88.131 19.9042 88.1302 19.8275V19.8275V8.62026C88.1332 8.54082 88.1198 8.46163 88.0908 8.38763C88.0619 8.31364 88.018 8.24644 87.9619 8.19026C87.905 8.13553 87.8377 8.09287 87.764 8.06481C87.6903 8.03675 87.6117 8.02388 87.5329 8.02697H84.5629C84.4006 8.02146 84.2426 8.0801 84.1231 8.19026C84.0633 8.24416 84.0163 8.3107 83.9853 8.38506C83.9543 8.45942 83.9401 8.53975 83.9439 8.62026V12.512H79.8988V8.62026C79.9025 8.53975 79.8884 8.45942 79.8574 8.38506C79.8264 8.3107 79.7794 8.24416 79.7196 8.19026C79.5994 8.0811 79.4419 8.02261 79.2798 8.02697H76.3043C76.1509 8.0257 76.0029 8.08425 75.8917 8.19026C75.8319 8.24416 75.7848 8.3107 75.7539 8.38506C75.7229 8.45942 75.7087 8.53975 75.7125 8.62026V8.62026V19.8329C75.7179 19.9885 75.782 20.1363 75.8918 20.2464C76.0017 20.3565 76.1491 20.4208 76.3043 20.4262H79.2798V20.4208ZM96.758 20.6603C98.7561 20.6603 100.291 20.1958 101.362 19.2668C101.912 18.7617 102.351 18.1478 102.652 17.4639C102.953 16.78 103.109 16.0409 103.111 15.2934C103.143 14.8797 103.154 14.526 103.154 14.2048C103.154 13.8837 103.154 13.5462 103.111 13.1162C103.103 12.369 102.939 11.6317 102.63 10.9519C102.32 10.2721 101.872 9.66509 101.313 9.17C100.228 8.22291 98.709 7.74937 96.758 7.74937C94.8069 7.74937 93.2938 8.2338 92.2187 9.20266C91.6604 9.69775 91.2119 10.3048 90.9024 10.9846C90.5928 11.6643 90.429 12.4016 90.4215 13.1489C90.4215 13.3557 90.4215 13.6932 90.4215 14.2375V14.4008C90.4215 14.8253 90.4215 15.1247 90.4215 15.3098C90.423 16.0572 90.5792 16.7963 90.8801 17.4802C91.181 18.1642 91.6202 18.7781 92.1699 19.2832C93.2269 20.2049 94.7562 20.6639 96.758 20.6603ZM96.758 17.6557C96.4853 17.6773 96.2115 17.6332 95.9593 17.5271C95.7072 17.4211 95.4839 17.2562 95.3082 17.0461C94.9438 16.4908 94.7546 15.8383 94.7653 15.1737V15.1737V14.2211V13.2686C94.7587 12.6079 94.9477 11.9602 95.3082 11.4071C95.4957 11.2112 95.7208 11.0553 95.9699 10.9488C96.2191 10.8423 96.4871 10.7874 96.758 10.7874C97.0288 10.7874 97.2968 10.8423 97.546 10.9488C97.7951 11.0553 98.0202 11.2112 98.2077 11.4071C98.5683 11.9602 98.7572 12.6079 98.7507 13.2686C98.7507 13.4265 98.7507 13.7422 98.7507 14.2211C98.7507 14.7001 98.7507 15.0158 98.7507 15.1737C98.7614 15.8383 98.5722 16.4908 98.2077 17.0461C98.032 17.2562 97.8088 17.4211 97.5566 17.5271C97.3044 17.6332 97.0306 17.6773 96.758 17.6557V17.6557ZM108.986 20.4208C109.148 20.4251 109.305 20.3666 109.425 20.2575C109.485 20.2036 109.532 20.137 109.563 20.0627C109.594 19.9883 109.608 19.908 109.605 19.8275V11.2656H114.052C114.132 11.2693 114.212 11.2552 114.286 11.2241C114.36 11.193 114.427 11.1459 114.48 11.086C114.587 10.9725 114.645 10.8224 114.643 10.6668V10.6668V8.62026C114.651 8.54046 114.641 8.45997 114.614 8.38455C114.587 8.30913 114.543 8.24063 114.487 8.18395C114.43 8.12728 114.362 8.08381 114.287 8.05668C114.211 8.02954 114.131 8.01939 114.052 8.02697H106.01C105.855 8.02542 105.705 8.08391 105.592 8.19026C105.535 8.24617 105.491 8.31319 105.461 8.38716C105.431 8.46113 105.416 8.54047 105.418 8.62026V8.62026V19.8329C105.421 19.9894 105.484 20.1387 105.595 20.2493C105.705 20.36 105.854 20.4234 106.01 20.4262H108.986V20.4208ZM122.017 20.6603C124.015 20.6603 125.55 20.1958 126.621 19.2668C127.171 18.7617 127.61 18.1478 127.911 17.4639C128.212 16.78 128.368 16.0409 128.37 15.2934C128.402 14.8797 128.413 14.526 128.413 14.2048C128.413 13.8837 128.413 13.5462 128.37 13.1162C128.362 12.369 128.198 11.6317 127.889 10.9519C127.579 10.2721 127.131 9.66509 126.572 9.17C125.486 8.22291 123.968 7.74937 122.017 7.74937C120.066 7.74937 118.547 8.22291 117.461 9.17C116.903 9.66509 116.455 10.2721 116.145 10.9519C115.835 11.6317 115.672 12.369 115.664 13.1162C115.664 13.323 115.664 13.6605 115.664 14.2048V14.3681C115.664 14.7927 115.664 15.092 115.664 15.2771C115.666 16.0246 115.822 16.7637 116.123 17.4476C116.424 18.1315 116.863 18.7454 117.412 19.2505C118.484 20.194 120.019 20.6639 122.017 20.6603V20.6603ZM122.017 17.6557C121.743 17.6768 121.469 17.6325 121.216 17.5265C120.963 17.4206 120.739 17.2559 120.562 17.0461C120.198 16.4906 120.008 15.8383 120.019 15.1737V15.1737L119.992 14.2211L120.019 13.2686C120.013 12.608 120.201 11.9603 120.562 11.4071C120.75 11.211 120.975 11.055 121.225 10.9485C121.474 10.8419 121.743 10.787 122.014 10.787C122.285 10.787 122.554 10.8419 122.803 10.9485C123.053 11.055 123.279 11.211 123.467 11.4071C123.825 11.9612 124.014 12.6083 124.01 13.2686C124.01 13.4265 124.01 13.7422 124.01 14.2211C124.01 14.7001 124.01 15.0158 124.01 15.1737C124.018 15.8379 123.829 16.4896 123.467 17.0461C123.291 17.2543 123.068 17.4181 122.817 17.524C122.566 17.6299 122.294 17.675 122.022 17.6557H122.017ZM67.3562 40.658C67.4365 40.6617 67.5166 40.6476 67.5908 40.6165C67.665 40.5855 67.7314 40.5383 67.7852 40.4784C67.8917 40.3652 67.9501 40.2149 67.948 40.0592V40.0592V28.852C67.9556 28.7722 67.9455 28.6917 67.9184 28.6163C67.8913 28.5409 67.848 28.4724 67.7914 28.4157C67.7349 28.359 67.6666 28.3156 67.5913 28.2884C67.5161 28.2613 67.4358 28.2512 67.3562 28.2587H57.8434C57.6882 28.2566 57.5382 28.3152 57.4253 28.422C57.3655 28.4759 57.3185 28.5425 57.2875 28.6168C57.2565 28.6912 57.2424 28.7715 57.2461 28.852V32.2648C57.2944 33.5221 57.1831 34.7805 56.9149 36.0096C56.8639 36.3279 56.7106 36.6209 56.4783 36.8439C56.2461 37.0669 55.9475 37.2078 55.6281 37.2452C55.4685 37.2722 55.3198 37.3439 55.1991 37.452C55.1472 37.5031 55.106 37.5641 55.078 37.6314C55.05 37.6987 55.0358 37.771 55.0362 37.8439V40.0211C55.0347 40.1025 55.0492 40.1834 55.079 40.259C55.1089 40.3347 55.1534 40.4037 55.21 40.462C55.268 40.5209 55.3374 40.5673 55.414 40.5982C55.4906 40.6291 55.5727 40.6439 55.6552 40.6416C56.8455 40.7125 58.0327 40.4606 59.0922 39.9123C59.9221 39.3486 60.505 38.4877 60.7211 37.5065C61.0873 35.9319 61.2479 34.3163 61.1989 32.7003V32.7003V31.481H63.74V40.0429C63.7363 40.1234 63.7504 40.2037 63.7814 40.2781C63.8124 40.3525 63.8595 40.419 63.9192 40.4729C63.9777 40.5289 64.0466 40.5727 64.1222 40.6017C64.1977 40.6307 64.2782 40.6442 64.359 40.6416H67.3345L67.3562 40.658ZM76.7278 40.8975C78.726 40.8975 80.2608 40.4312 81.3322 39.4986C81.8817 38.9945 82.3209 38.3816 82.6218 37.6986C82.9228 37.0155 83.079 36.2773 83.0806 35.5306C83.1132 35.117 83.1294 34.7577 83.1294 34.442C83.1294 34.1263 83.1294 33.7834 83.0806 33.3534C83.0725 32.6055 82.9085 31.8676 82.599 31.187C82.2895 30.5064 81.8413 29.8983 81.2834 29.4018C80.1974 28.4619 78.6789 27.9902 76.7278 27.9866C74.7768 27.983 73.2583 28.4547 72.1723 29.4018C71.6144 29.8983 71.1662 30.5064 70.8567 31.187C70.5472 31.8676 70.3831 32.6055 70.3751 33.3534C70.3751 33.5603 70.3751 33.8977 70.3751 34.442V34.6053C70.3751 35.0244 70.3751 35.3292 70.3751 35.5143C70.3767 36.261 70.5329 36.9992 70.8339 37.6822C71.1348 38.3653 71.574 38.9782 72.1235 39.4823C73.2148 40.4294 74.7297 40.8975 76.7278 40.8975ZM76.7278 37.8929C76.4554 37.9131 76.182 37.8684 75.93 37.7625C75.6781 37.6565 75.4547 37.4923 75.2781 37.2833C74.9146 36.7276 74.7255 36.0754 74.7352 35.4109V34.4584V33.5004C74.7294 32.8415 74.9183 32.1957 75.2781 31.6443C75.4656 31.4484 75.6907 31.2925 75.9398 31.186C76.189 31.0795 76.457 31.0246 76.7278 31.0246C76.9987 31.0246 77.2667 31.0795 77.5159 31.186C77.765 31.2925 77.9901 31.4484 78.1776 31.6443C78.5374 32.1957 78.7263 32.8415 78.7205 33.5004C78.7205 33.6637 78.7205 33.9794 78.7205 34.4584C78.7205 34.9373 78.7205 35.253 78.7205 35.4109C78.7302 36.0754 78.5411 36.7276 78.1776 37.2833C78.001 37.4923 77.7776 37.6565 77.5257 37.7625C77.2737 37.8684 77.0003 37.9131 76.7278 37.8929V37.8929ZM91.1328 40.8975C92.3695 40.9423 93.5972 40.6707 94.7001 40.1082C95.5364 39.6871 96.252 39.0596 96.7797 38.2848C97.1578 37.7655 97.3852 37.1513 97.4367 36.5104C97.4359 36.4327 97.4185 36.356 97.3858 36.2856C97.353 36.2152 97.3055 36.1527 97.2466 36.1022C97.1292 35.995 96.9765 35.9349 96.8177 35.9334H93.6305C93.4868 35.9257 93.3448 35.968 93.2287 36.0532C93.1136 36.1595 93.0229 36.2894 92.9626 36.4342C92.8411 36.8185 92.6155 37.1614 92.311 37.4248C91.9923 37.6427 91.6102 37.748 91.2251 37.7242C90.9618 37.7421 90.698 37.6988 90.454 37.5978C90.2101 37.4968 89.9928 37.3407 89.8188 37.1418C89.459 36.6025 89.2837 35.9607 89.3193 35.3129V35.3129V34.5291V33.6201C89.3663 31.9981 90.0016 31.1871 91.2251 31.1871C91.6006 31.1725 91.9705 31.2814 92.2785 31.4973C92.5932 31.7524 92.8287 32.0923 92.9572 32.4771C93.0159 32.6227 93.1068 32.753 93.2232 32.8581C93.3381 32.9458 93.481 32.9884 93.625 32.9778H96.8123C96.8955 32.9792 96.9782 32.9641 97.0555 32.9333C97.1329 32.9024 97.2034 32.8565 97.2629 32.7982C97.325 32.7443 97.3728 32.6758 97.4022 32.5989C97.4315 32.522 97.4415 32.439 97.4312 32.3573C97.3554 31.6868 97.1003 31.0493 96.6928 30.5122C96.1559 29.7657 95.4434 29.1637 94.6187 28.7595C93.5375 28.2334 92.3448 27.9793 91.1437 28.0192C89.5496 27.9475 87.9847 28.4646 86.7456 29.4725C86.1771 29.9762 85.7233 30.5965 85.415 31.2915C85.1068 31.9865 84.9514 32.7398 84.9593 33.5004V33.5004V34.4801V35.4327C84.9581 36.1924 85.1176 36.9438 85.4274 37.6371C85.7372 38.3305 86.1902 38.9501 86.7565 39.4551C87.9914 40.454 89.5475 40.9669 91.1328 40.8975V40.8975ZM105.429 40.8975C107.427 40.8975 108.962 40.4312 110.034 39.4986C110.583 38.9945 111.022 38.3816 111.323 37.6986C111.624 37.0155 111.78 36.2773 111.782 35.5306C111.814 35.117 111.825 34.7577 111.825 34.442C111.825 34.1263 111.825 33.7834 111.782 33.3534C111.774 32.6055 111.61 31.8676 111.3 31.187C110.991 30.5064 110.543 29.8983 109.985 29.4018C108.899 28.4619 107.38 27.9902 105.429 27.9866C103.478 27.983 101.97 28.4656 100.906 29.4344C100.348 29.931 99.9001 30.5391 99.5906 31.2197C99.2811 31.9002 99.117 32.6382 99.109 33.3861C99.109 33.5929 99.109 33.9304 99.109 34.4747V34.638C99.109 35.0571 99.109 35.3619 99.109 35.547C99.1106 36.2936 99.2668 37.0319 99.5678 37.7149C99.8687 38.3979 100.308 39.0109 100.857 39.5149C101.914 40.433 103.442 40.8938 105.44 40.8975H105.429ZM105.429 37.8929C105.157 37.9131 104.883 37.8684 104.631 37.7625C104.379 37.6565 104.156 37.4923 103.979 37.2833C103.616 36.7276 103.427 36.0754 103.436 35.4109V34.4584V33.5004C103.431 32.8415 103.62 32.1957 103.979 31.6443C104.167 31.4484 104.392 31.2925 104.641 31.186C104.89 31.0795 105.158 31.0246 105.429 31.0246C105.7 31.0246 105.968 31.0795 106.217 31.186C106.466 31.2925 106.691 31.4484 106.879 31.6443C107.239 32.1957 107.428 32.8415 107.422 33.5004C107.422 33.6637 107.422 33.9794 107.422 34.4584C107.422 34.9373 107.422 35.253 107.422 35.4109C107.432 36.0754 107.242 36.7276 106.879 37.2833C106.703 37.4908 106.482 37.6541 106.232 37.7599C105.982 37.8658 105.711 37.9114 105.44 37.8929H105.429ZM119.845 40.8975C121.082 40.9423 122.309 40.6707 123.412 40.1082C124.249 39.6871 124.964 39.0596 125.492 38.2848C125.87 37.7655 126.097 37.1513 126.149 36.5104C126.148 36.4327 126.131 36.356 126.098 36.2856C126.065 36.2152 126.018 36.1527 125.959 36.1022C125.841 35.9958 125.688 35.9359 125.53 35.9334H122.354C122.208 35.9267 122.065 35.9688 121.946 36.0532C121.835 36.1614 121.746 36.2909 121.686 36.4342C121.564 36.8185 121.339 37.1614 121.034 37.4248C120.715 37.6423 120.333 37.7476 119.948 37.7242C119.686 37.7416 119.423 37.6981 119.18 37.5971C118.937 37.4961 118.72 37.3403 118.547 37.1418C118.188 36.6025 118.012 35.9607 118.048 35.3129V34.5291V33.6201C118.095 31.9981 118.728 31.1871 119.948 31.1871C120.335 31.1656 120.717 31.2748 121.034 31.4973C121.347 31.7542 121.582 32.0935 121.713 32.4771C121.771 32.6213 121.86 32.7513 121.973 32.8581C122.091 32.9449 122.235 32.9873 122.381 32.9778H125.568C125.651 32.9792 125.734 32.9641 125.811 32.9333C125.889 32.9024 125.959 32.8565 126.019 32.7982C126.081 32.7443 126.128 32.6758 126.158 32.5989C126.187 32.522 126.197 32.439 126.187 32.3573C126.111 31.6868 125.856 31.0493 125.448 30.5122C124.899 29.7601 124.171 29.1576 123.331 28.7595C122.25 28.2334 121.057 27.9793 119.856 28.0192C118.26 27.9461 116.693 28.4633 115.452 29.4725C114.885 29.9771 114.433 30.5978 114.126 31.2927C113.818 31.9875 113.664 32.7404 113.671 33.5004V33.5004V34.4801V35.4327C113.669 36.1926 113.828 36.9443 114.138 37.6378C114.448 38.3313 114.902 38.9508 115.469 39.4551C116.706 40.4566 118.267 40.9696 119.856 40.8975H119.845ZM131.503 40.658C131.62 40.6649 131.736 40.6337 131.834 40.5689C131.931 40.5041 132.006 40.4094 132.045 40.2987L133.973 36.7227H135.602V40.0592C135.598 40.1397 135.612 40.2201 135.643 40.2944C135.674 40.3688 135.721 40.4353 135.781 40.4892C135.84 40.5453 135.909 40.589 135.984 40.618C136.06 40.647 136.14 40.6606 136.221 40.658H139.289C139.369 40.6617 139.449 40.6476 139.523 40.6165C139.597 40.5855 139.664 40.5383 139.718 40.4784C139.772 40.4234 139.816 40.358 139.844 40.286C139.873 40.214 139.887 40.1369 139.886 40.0592V40.0592V28.852C139.889 28.7726 139.876 28.6934 139.847 28.6194C139.818 28.5454 139.774 28.4782 139.718 28.422C139.661 28.3673 139.593 28.3246 139.52 28.2966C139.446 28.2685 139.367 28.2557 139.289 28.2587H133.512C132.175 28.1788 130.852 28.5633 129.765 29.3473C129.313 29.7245 128.956 30.2027 128.722 30.7434C128.488 31.2842 128.384 31.8724 128.418 32.4608C128.408 33.1887 128.595 33.9058 128.961 34.5346C129.328 35.1371 129.857 35.6238 130.487 35.9389V35.9389L128.131 39.8524C128.055 39.9467 128.013 40.0635 128.011 40.1844C128.011 40.2478 128.024 40.3105 128.049 40.3686C128.074 40.4267 128.111 40.4789 128.158 40.5219C128.208 40.5703 128.268 40.6078 128.333 40.6321C128.399 40.6565 128.468 40.6671 128.538 40.6634H131.535L131.503 40.658ZM135.689 33.8868H133.664C133.456 33.9014 133.247 33.8747 133.05 33.8084C132.852 33.7421 132.67 33.6374 132.512 33.5004C132.379 33.3628 132.275 33.1989 132.208 33.019C132.14 32.8391 132.111 32.6472 132.122 32.4553C132.104 32.2637 132.13 32.0706 132.198 31.8905C132.266 31.7105 132.373 31.5481 132.512 31.4157C132.872 31.1738 133.302 31.0606 133.734 31.0946H135.689V33.8868Z" fill="black"/>
<path d="M15.4698 0.940201H29.0006C34.0882 0.940201 35.9289 1.48451 37.7913 2.4697C39.6276 3.44499 41.1295 4.95059 42.1024 6.79147C43.0961 8.65843 43.6282 10.5036 43.6282 15.6037V29.1678C43.6282 34.2679 43.0852 36.1131 42.1024 37.9801C41.1295 39.821 39.6276 41.3266 37.7913 42.3018C35.9289 43.2979 34.0882 43.8313 29.0006 43.8313H15.4698C10.3822 43.8313 8.54152 43.287 6.67914 42.3018C4.84278 41.3266 3.34087 39.821 2.36797 37.9801C1.37434 36.1131 0.847656 34.2679 0.847656 29.1678V15.6037C0.847656 10.5036 1.39062 8.65843 2.36797 6.79147C3.34087 4.95059 4.84278 3.44499 6.67914 2.4697C8.54152 1.47362 10.3822 0.940201 15.4698 0.940201Z" fill="white"/>
<path fill-rule="evenodd" clip-rule="evenodd" d="M42.1022 6.79147C42.2914 7.14505 42.4617 7.50843 42.6126 7.88007C42.1088 8.26432 41.4855 8.45717 40.8534 8.42438C40.4905 8.44287 40.1277 8.3862 39.7877 8.2579C39.4476 8.1296 39.1376 7.93243 38.877 7.67868C38.3774 7.1041 38.1034 6.36703 38.1059 5.60488V5.26197V4.76121V2.63299C39.8034 3.61258 41.189 5.05448 42.1022 6.79147V6.79147ZM8.05805 7.30311C7.46763 7.30311 6.90139 7.53823 6.48391 7.95675C6.06642 8.37526 5.83188 8.94289 5.83188 9.53476C5.83188 10.1266 6.06642 10.6943 6.48391 11.1128C6.90139 11.5313 7.46763 11.7664 8.05805 11.7664C8.64847 11.7664 9.2147 11.5313 9.63219 11.1128C10.0497 10.6943 10.2842 10.1266 10.2842 9.53476C10.2842 8.94289 10.0497 8.37526 9.63219 7.95675C9.2147 7.53823 8.64847 7.30311 8.05805 7.30311ZM3.6057 19.1853C3.96473 19.1678 4.32351 19.2245 4.65977 19.3518C4.99602 19.4792 5.30258 19.6744 5.56039 19.9255C6.11092 20.5618 6.39494 21.3867 6.35313 22.2279L6.3857 23.3655V23.9098V24.3453V25.0801L6.35313 26.0816C6.39239 26.9114 6.11473 27.725 5.57668 28.3568C5.3199 28.6097 5.01364 28.8065 4.67723 28.9348C4.34081 29.0631 3.98151 29.1202 3.62199 29.1025C3.25906 29.1216 2.8961 29.0653 2.55596 28.9369C2.21582 28.8086 1.90586 28.6111 1.64559 28.3568C1.14718 27.7819 0.874979 27.0446 0.88 26.283V25.9401V25.4393V22.8267V22.3422V22.2279C0.843702 21.3969 1.12091 20.5827 1.65645 19.9473C1.91465 19.6922 2.22231 19.493 2.5604 19.362C2.89848 19.2309 3.2598 19.1707 3.62199 19.1853H3.6057ZM40.8371 19.1853C41.1989 19.1642 41.5612 19.2191 41.9006 19.3466C42.24 19.4741 42.5491 19.6713 42.808 19.9255C43.3508 20.5651 43.6269 21.3896 43.5791 22.2279L43.6171 23.3655V23.9098V24.3453V25.0801L43.5845 26.0816C43.621 26.9077 43.3435 27.7169 42.808 28.3459C42.5527 28.5992 42.2474 28.7963 41.9118 28.9247C41.5762 29.0531 41.2176 29.1099 40.8588 29.0916C40.4958 29.1114 40.1326 29.0554 39.7924 28.927C39.4522 28.7986 39.1423 28.6007 38.8824 28.3459C38.382 27.7718 38.1078 27.0344 38.1114 26.2721V25.9292V25.4284V22.8267V22.3422V22.2279C38.0707 21.3963 38.3484 20.5805 38.8878 19.9473C39.1456 19.6917 39.4532 19.4921 39.7914 19.361C40.1296 19.2299 40.4911 19.1701 40.8534 19.1853H40.8371ZM22.1752 15.6473C19.9599 15.6473 18.2061 16.2007 16.9139 17.3074C15.6216 18.4142 14.932 19.9908 14.8452 22.0374V22.2878V23.1043V25.7115V26.1251V26.2394C14.9212 28.3296 15.5999 29.9171 16.8813 31.0021C18.1627 32.0871 19.9237 32.6314 22.1644 32.635C23.4478 32.6556 24.7227 32.4226 25.9163 31.9492C26.9566 31.5448 27.8644 30.859 28.5388 29.9679C29.1906 29.0794 29.5442 28.0064 29.5488 26.9035C29.551 26.8369 29.5385 26.7707 29.5122 26.7095C29.486 26.6484 29.4465 26.5938 29.3967 26.5497C29.3376 26.4949 29.2672 26.454 29.1904 26.4299H29.1144H25.5851C25.4468 26.431 25.3122 26.4747 25.1996 26.5551C25.0898 26.6541 25.0106 26.7825 24.9715 26.9253L24.9389 27.0396C24.8071 27.6754 24.4527 28.243 23.9399 28.6398C23.4095 28.9742 22.7904 29.1393 22.1644 29.1134C20.4432 29.1134 19.531 28.1826 19.417 26.3265V25.9945V25.4829V24.6174V23.4472V22.5545V22.1572C19.4749 20.1759 20.3925 19.1853 22.1698 19.1853C22.7939 19.1561 23.4125 19.3154 23.9453 19.6425C24.4579 20.0535 24.8112 20.6311 24.9444 21.2754C24.9894 21.4586 25.0832 21.626 25.2159 21.7598C25.2972 21.8241 25.3951 21.8638 25.4982 21.8741H25.5905H29.1198C29.2258 21.8596 29.3246 21.812 29.4021 21.738C29.4519 21.694 29.4914 21.6394 29.5177 21.5782C29.5439 21.517 29.5564 21.4508 29.5542 21.3842C29.5504 20.2812 29.1967 19.208 28.5443 18.3198C27.8699 17.4288 26.962 16.7429 25.9217 16.3386C24.7302 15.864 23.4572 15.6291 22.1752 15.6473ZM30.7922 39.7763V43.8041H30.1134H29.3913H28.1479C27.6783 43.8031 27.2264 43.6242 26.8828 43.3034C26.7084 43.1061 26.5748 42.876 26.49 42.6265C26.4052 42.377 26.3707 42.1131 26.3887 41.8501C26.3615 41.2965 26.546 40.7534 26.9045 40.3315C27.1987 40.0133 27.6023 39.8188 28.0339 39.7872H28.1913H30.765L30.7922 39.7763ZM25.7588 0.940201V11.2384C25.7805 11.3603 25.8393 11.4725 25.9272 11.5596C25.9968 11.63 26.0825 11.6823 26.1769 11.712H26.2475H26.3398H29.565H29.6628C29.789 11.697 29.907 11.6416 29.9994 11.5541C30.0757 11.4839 30.1303 11.3932 30.1569 11.2929V11.2167V0.95653H30.4881H31.1234L31.7206 0.983745L32.2636 1.0164C32.7143 1.04906 33.1269 1.09261 33.5124 1.14159V1.19058V1.57704V2.21387V5.26197V5.52868C33.5884 7.63695 34.2708 9.23358 35.5594 10.3186C36.8481 11.4035 38.6055 11.9478 40.8316 11.9515C41.7151 11.9598 42.5961 11.8574 43.4542 11.6467C43.4542 11.8916 43.4976 12.1474 43.5139 12.4141L43.5465 12.9584V13.5517C43.5465 13.6551 43.5465 13.7586 43.5465 13.862V14.5151C43.5465 14.7383 43.5465 14.9724 43.5465 15.2064V15.9848C42.644 15.729 41.7097 15.6044 40.7719 15.6146C38.5711 15.6146 36.8173 16.1771 35.5105 17.302C34.8719 17.8732 34.3597 18.5724 34.0071 19.3542C33.6546 20.1361 33.4694 20.9834 33.4636 21.8415V22.2279V22.8648V25.9129V26.1796C33.5396 28.2878 34.2219 29.8845 35.5105 30.9694C36.7992 32.0544 38.5566 32.5987 40.7828 32.6024C41.6887 32.6115 42.5921 32.5036 43.4705 32.2812C43.432 34.0269 43.0481 35.7475 42.3411 37.3432L42.1945 37.648L42.0316 37.9529C41.3255 39.271 40.3544 40.428 39.1797 41.3508C38.0049 42.2736 36.652 42.9421 35.2065 43.3142V36.886C35.1952 36.7585 35.1395 36.639 35.049 36.5486C34.9776 36.4761 34.8873 36.4252 34.7884 36.4016L34.6635 36.3798H27.9524C26.859 36.3867 25.779 36.6221 24.7815 37.0711C23.8662 37.4853 23.0949 38.1638 22.5662 39.0197C22.0593 39.8832 21.8 40.8701 21.8169 41.8718C21.8088 42.5365 21.9153 43.1976 22.1318 43.8259H14.8071H14.1827H13.5963H13.314L12.771 43.7987L12.2661 43.766L11.7828 43.7334L11.3321 43.6844C10.8218 43.6299 10.3602 43.5646 9.94215 43.4884L9.58922 43.4177L9.25801 43.3415C9.14941 43.3415 9.04082 43.287 8.94309 43.2544L8.63902 43.1673L8.21008 43.0258L7.93859 42.9223V42.6883C7.99651 40.707 8.91413 39.7164 10.6914 39.7164C11.3166 39.6848 11.9363 39.8463 12.467 40.1791L12.7004 40.3369C13.1246 40.6225 13.4851 40.9932 13.7592 41.4255L13.8515 41.5943C14.1176 42.095 14.3945 42.1386 14.5737 42.1386H14.7854C14.832 42.1313 14.8776 42.1185 14.9212 42.1005L15.0298 42.0515L15.2361 41.9426L15.5076 41.7956L15.8388 41.6051L16.3818 41.284L16.8541 40.9901C17.0492 40.8713 17.2048 40.6973 17.3014 40.49C17.3981 40.2828 17.4314 40.0515 17.3971 39.8253C17.3374 39.2429 16.0234 37.9801 14.8017 37.267L14.5194 37.1037L14.2479 36.9513C13.2466 36.4142 12.1256 36.1407 10.9901 36.1567H10.7403H10.1973C8.4652 36.1562 6.78779 36.7649 5.45723 37.8767C4.74242 38.487 4.19484 39.2701 3.86633 40.1518C3.28874 39.5139 2.79263 38.8063 2.38945 38.0454L2.23199 37.7406L2.08539 37.3705C1.37518 35.7758 0.991152 34.0545 0.956016 32.3084C1.83443 32.5308 2.73777 32.6387 3.64371 32.6296C5.87531 32.6296 7.62367 32.0853 8.90508 30.9967C10.1865 29.908 10.8598 28.3132 10.9412 26.2068V25.2488V24.661V23.7629V22.8267V22.1354C10.8761 20.0562 10.1883 18.4559 8.87793 17.3346C7.56757 16.2134 5.82283 15.6509 3.64371 15.6473C2.70619 15.6348 1.77176 15.7576 0.869141 16.012V14.9724V14.3736V13.8293V13.285L0.896291 12.7788L0.928868 12.2944V12.0658L0.966875 11.6249L1.01031 11.2112L1.06461 10.8139C1.06461 10.754 1.06461 10.6887 1.09176 10.6288L1.15148 10.2641C1.15148 10.1444 1.18949 10.0301 1.21664 9.91577L1.2818 9.58919L1.35781 9.27893L1.43926 8.97957L1.4827 8.83805L1.56957 8.56045C1.56957 8.51147 1.60215 8.46792 1.61301 8.42438L1.71074 8.15767L1.81391 7.90185L1.86277 7.77666L1.9768 7.53172L2.09082 7.28678L2.21027 7.04729L2.32973 6.80779C3.30489 4.96674 4.80856 3.46126 6.64633 2.48602L6.99926 2.30096L7.24359 2.18666L7.4825 2.07235L7.60738 2.01792L7.86258 1.91451L7.98746 1.86552L8.25352 1.76754L8.525 1.67501L8.80735 1.59337L9.10598 1.51172L9.4209 1.43552L9.74668 1.36476L10.0888 1.29944L10.4525 1.24501L10.6371 1.2178L11.0335 1.16337L11.4516 1.11982L11.8914 1.08172L12.3529 1.04362L12.847 1.0164H13.39H13.933H14.5139H17.2288C17.2548 2.58393 17.0999 4.14922 16.7673 5.68109L16.713 5.89337C16.3709 7.13438 15.7791 7.82564 14.9483 7.96716C14.8241 7.98225 14.7068 8.03287 14.6105 8.11299C14.5143 8.1931 14.443 8.29932 14.4054 8.41894V8.50058V11.2765C14.4248 11.4094 14.4879 11.532 14.5845 11.6249C14.6399 11.6835 14.7063 11.7306 14.7799 11.7633C14.8536 11.796 14.933 11.8137 15.0135 11.8154C16.7998 11.7827 18.1573 11.4126 19.0912 10.7268C20.0994 9.9024 20.781 8.74431 21.0133 7.46096C21.3671 5.66865 21.5381 3.84492 21.5237 2.01792V0.940201H25.7588Z" fill="#FF5700"/>
</svg>
