<svg width="21" height="21" fill="none" xmlns="http://www.w3.org/2000/svg"><circle cx="10.5" cy="10.5" r="10.5" fill="#0169ED"/><path fill-rule="evenodd" clip-rule="evenodd" d="M11.816 8.456c-1.5 1.351-2.76 2.488-2.803 2.528l-.077.071-1.179-1.223c-.649-.673-1.189-1.22-1.2-1.216-.012.003-.367.32-.79.704L5 10.018l.068.076c.037.042.898.938 1.915 1.99L8.83 14l.12-.113c.065-.061 1.642-1.482 3.504-3.157l3.466-3.12.08-.076-.604-.637c-.333-.35-.661-.696-.73-.767L14.542 6l-2.726 2.456z" fill="#fff"/></svg>