<svg width="60" height="61" fill="none" xmlns="http://www.w3.org/2000/svg"><circle cx="30.057" cy="30.056" r="23.482" fill="#fff"/><path fill-rule="evenodd" clip-rule="evenodd" d="M27.99.028c-4.195.312-8.355 1.496-11.976 3.407C8.84 7.221 3.403 13.863 1.162 21.573.329 24.439 0 26.828 0 30.01c0 3.182.329 5.571 1.162 8.438 2.327 8.008 8.088 14.835 15.615 18.505.969.473 2.21 1.02 2.76 1.219 6.064 2.185 12.398 2.448 18.49.767C46.226 56.677 53.173 50.9 56.93 43.22c1.313-2.685 2.165-5.286 2.635-8.045 1.298-7.627-.328-15.397-4.545-21.72C50.141 6.142 42.725 1.487 33.977.248 32.726.071 29.168-.06 27.99.028zm3.852 20.368c.68.146 1.017.385 1.27.904.19.39.21.829.215 4.425.004 3.597.025 4.03.213 4.373.39.714.832.52 1.995-.88 1.47-1.767 2.702-3.853 3.718-6.294.44-1.06.617-1.354.947-1.576l.405-.273 3.722.036c3.568.034 3.736.045 4.054.281.909.677.218 2.358-2.483 6.035-3.153 4.293-3.34 4.603-3.177 5.257.047.185.927 1.173 2.165 2.43 2.017 2.047 3.394 3.707 3.725 4.49.269.637.206 1.251-.17 1.653-.496.53-.988.61-3.78.608-4.585-.003-4.616-.016-7.761-3.362-1.596-1.697-2.16-1.986-2.742-1.405-.33.33-.462.768-.73 2.407-.327 2.005-.612 2.229-2.856 2.239-3.133.013-5.434-.658-7.914-2.309-3.462-2.304-7.11-7.54-10.67-15.315-.852-1.864-.957-2.394-.553-2.798.223-.223.39-.235 3.375-.232 4.18.003 4.08-.043 5.063 2.287 1.002 2.371 2.818 5.325 4.025 6.545.687.694 1.002.812 1.32.494.4-.399.482-1.103.482-4.104 0-2.564-.026-2.982-.204-3.308-.255-.467-.715-.798-1.34-.967-.727-.195-.773-.566-.14-1.14.455-.414.804-.541 1.735-.636 1.081-.11 5.39-.015 6.091.135z" fill="#4169E1"/></svg>