<svg width="988" height="248" viewBox="0 0 988 248" fill="none" xmlns="http://www.w3.org/2000/svg">
<path d="M0 103.333C0 76.4103 0 62.9487 3.44346 52.0275C10.7428 28.8769 28.8769 10.7428 52.0275 3.44346C62.9487 0 76.4103 0 103.333 0V0C141.026 0 159.872 0 175.162 4.82084C207.572 15.0399 232.96 40.4276 243.179 72.8385C248 88.1282 248 106.974 248 144.667V144.667C248 171.59 248 185.051 244.557 195.973C237.257 219.123 219.123 237.257 195.973 244.557C185.051 248 171.59 248 144.667 248V248C106.974 248 88.1282 248 72.8385 243.179C40.4276 232.96 15.0399 207.572 4.82084 175.162C0 159.872 0 141.026 0 103.333V103.333Z" fill="#0169ED"/>
<path d="M135.676 200.965C114.103 200.965 103.317 200.965 98.6632 196.249C95.7303 193.278 94.0807 189.268 94.0713 185.085C94.0563 178.448 101.702 170.814 116.994 155.545L155.352 117.244C170.551 102.068 178.15 94.4797 184.748 94.5167C188.907 94.54 192.89 96.2015 195.84 99.1433C200.52 103.811 200.52 114.569 200.52 136.085L200.52 174.386C200.52 184.353 200.52 189.336 198.374 193.043C196.99 195.434 195.009 197.423 192.626 198.812C188.932 200.965 183.966 200.965 174.034 200.965L135.676 200.965Z" fill="white"/>
<path d="M114.352 47.4812C135.924 47.4812 146.71 47.4812 151.364 52.0869C154.297 54.9892 155.947 58.9065 155.956 62.9915C155.971 69.4741 148.325 76.9311 133.033 91.8451L94.6751 129.255C79.4763 144.078 71.8768 151.49 65.2789 151.454C61.1204 151.431 57.1373 149.808 54.1877 146.935C49.5078 142.376 49.5078 131.868 49.5078 110.852L49.5078 73.4421C49.5078 63.707 49.5078 58.8394 51.6534 55.2187C53.0376 52.8829 55.0188 50.941 57.4017 49.5843C61.0957 47.4812 66.0617 47.4812 75.9936 47.4812L114.352 47.4812Z" fill="white"/>
<path d="M307.022 93.706L356.135 36.0141H308.916V22.7733H374.36V34.5954L325.247 92.2873H374.833V105.528H307.022V93.706Z" fill="#0169ED"/>
<path d="M400.852 22.7733H415.053V105.528H400.852V22.7733Z" fill="#0169ED"/>
<path d="M483.201 107.301C475.311 107.301 468.21 105.449 461.899 101.745C455.587 98.0407 450.617 92.9178 446.987 86.3762C443.437 79.8347 441.662 72.4656 441.662 64.2689C441.662 55.9146 443.476 48.4667 447.106 41.9251C450.814 35.3836 455.903 30.2606 462.372 26.5564C468.92 22.8521 476.337 21 484.621 21C491.564 21 497.836 22.3398 503.438 25.0195C509.039 27.6204 513.615 31.364 517.165 36.2505C520.795 41.0582 523.162 46.6146 524.266 52.9197H509.591C508.092 47.0086 505.134 42.3586 500.716 38.9696C496.297 35.5806 490.893 33.8861 484.502 33.8861C478.98 33.8861 474.049 35.1865 469.709 37.7874C465.449 40.3883 462.096 44.0137 459.65 48.6637C457.283 53.2349 456.1 58.4761 456.1 64.3871C456.1 70.377 457.323 75.6969 459.769 80.347C462.214 84.997 465.607 88.6224 469.946 91.2233C474.364 93.8242 479.335 95.1246 484.858 95.1246C491.8 95.1246 497.757 93.1543 502.727 89.2136C507.777 85.194 510.972 79.9529 512.313 73.4902H485.331V61.668H524.858V105.528H512.787V93.706C509.473 98.0407 505.292 101.39 500.242 103.755C495.272 106.119 489.591 107.301 483.201 107.301Z" fill="#0169ED"/>
<path d="M554.698 22.7733H578.367L602.746 89.2136L627.007 22.7733H650.321V105.528H636.474V34.2408L610.675 105.528H594.344L568.545 34.2408V105.528H554.698V22.7733Z" fill="#0169ED"/>
<path d="M715.997 107.301C708.581 107.301 702.072 105.764 696.47 102.691C690.868 99.5382 686.529 95.1246 683.452 89.45C680.375 83.7754 678.837 77.155 678.837 69.5889V22.7733H693.038V69.3524C693.038 77.0762 695.05 83.1449 699.074 87.5585C703.176 91.8932 708.817 94.0606 715.997 94.0606C723.176 94.0606 728.778 91.8932 732.802 87.5585C736.904 83.1449 738.956 77.0762 738.956 69.3524V22.7733H753.157V69.5889C753.157 77.155 751.618 83.7754 748.541 89.45C745.543 95.1246 741.244 99.5382 735.642 102.691C730.04 105.764 723.492 107.301 715.997 107.301Z" fill="#0169ED"/>
<path d="M781.678 22.7733H796.707L841.797 85.0758V22.7733H855.051V105.528H840.14L795.287 43.1073V105.528H781.678V64.1507V22.7733Z" fill="#0169ED"/>
<path d="M910.716 22.7733C919.631 22.7733 927.521 24.5072 934.385 27.975C941.249 31.364 946.535 36.2111 950.243 42.5162C954.03 48.7425 955.923 55.954 955.923 64.1507C955.923 72.2685 954.03 79.48 950.243 85.7851C946.535 92.0115 941.249 96.8585 934.385 100.326C927.521 103.794 919.631 105.528 910.716 105.528H884.325V64.1507V22.7733H910.716ZM910.716 92.2873C916.949 92.2873 922.393 91.1445 927.047 88.8589C931.702 86.5733 935.253 83.3025 937.698 79.0465C940.223 74.7906 941.485 69.8253 941.485 64.1507C941.485 58.4761 940.223 53.5108 937.698 49.2548C935.253 44.9989 931.702 41.7281 927.047 39.4425C922.393 37.1569 916.949 36.0141 910.716 36.0141H898.526V92.2873H910.716Z" fill="#0169ED"/>
<path d="M979.124 106.592C976.599 106.592 974.469 105.725 972.734 103.991C971.077 102.257 970.248 100.129 970.248 97.6073C970.248 95.0852 971.116 92.9966 972.852 91.3415C974.588 89.6076 976.678 88.7407 979.124 88.7407C981.649 88.7407 983.74 89.6076 985.396 91.3415C987.132 92.9966 988 95.0852 988 97.6073C988 100.129 987.132 102.257 985.396 103.991C983.74 105.725 981.649 106.592 979.124 106.592Z" fill="#0169ED"/>
<path d="M344.196 231C336.069 231 328.692 229.148 322.065 225.444C315.517 221.661 310.349 216.498 306.562 209.957C302.854 203.336 301 195.967 301 187.849C301 179.731 302.854 172.402 306.562 165.86C310.349 159.24 315.517 154.078 322.065 150.373C328.692 146.59 336.069 144.699 344.196 144.699C352.322 144.699 359.659 146.59 366.208 150.373C372.835 154.078 378.003 159.24 381.711 165.86C385.498 172.402 387.391 179.731 387.391 187.849C387.391 195.967 385.498 203.336 381.711 209.957C378.003 216.498 372.835 221.661 366.208 225.444C359.659 229.148 352.322 231 344.196 231ZM344.196 217.759C349.639 217.759 354.531 216.459 358.87 213.858C363.289 211.257 366.76 207.71 369.285 203.218C371.809 198.647 373.072 193.524 373.072 187.849C373.072 182.175 371.809 177.091 369.285 172.599C366.76 168.028 363.289 164.442 358.87 161.841C354.531 159.24 349.639 157.939 344.196 157.939C338.752 157.939 333.821 159.24 329.403 161.841C325.063 164.442 321.631 168.028 319.107 172.599C316.661 177.091 315.438 182.175 315.438 187.849C315.438 193.524 316.661 198.647 319.107 203.218C321.631 207.71 325.063 211.257 329.403 213.858C333.821 216.459 338.752 217.759 344.196 217.759Z" fill="#0169ED"/>
<path d="M414 146.472H429.03L474.119 208.774V146.472H487.374V229.227H472.462L427.61 166.806V198.016V229.227H414V146.472Z" fill="#0169ED"/>
<path d="M516.648 146.472H530.849V215.749H573.453V229.227H516.648V146.472Z" fill="#0169ED"/>
<path d="M595.791 146.472H609.993V229.227H595.791V146.472Z" fill="#0169ED"/>
<path d="M639.271 146.472H654.301L699.39 208.774V146.472H712.644V229.227H697.733L652.88 166.806V198.016V229.227H639.271V146.472Z" fill="#0169ED"/>
<path d="M741.914 146.472H793.365V159.003H755.879V181.584H783.571V194.115H755.879V216.695H795.287V229.227H741.914V146.472Z" fill="#0169ED"/>
</svg>
