<svg width="171" height="43" fill="none" xmlns="http://www.w3.org/2000/svg"><path d="M0 17.846c0-4.65 0-6.975.595-8.86A12.849 12.849 0 018.985.594C10.871 0 13.196 0 17.845 0c6.51 0 9.765 0 12.406.833a17.989 17.989 0 0111.747 11.746c.832 2.64.832 5.896.832 12.405 0 4.65 0 6.975-.595 8.86a12.849 12.849 0 01-8.39 8.391c-1.886.595-4.211.595-8.86.595-6.51 0-9.765 0-12.406-.832A17.989 17.989 0 01.833 30.25C0 27.61 0 24.355 0 17.846z" fill="#0169ED"/><path d="M19.749 8.2c3.726 0 5.588 0 6.392.796.507.5.792 1.177.793 1.883.003 1.12-1.318 2.407-3.959 4.983l-6.624 6.46c-2.625 2.56-3.937 3.84-5.077 3.835a2.767 2.767 0 01-1.915-.78c-.809-.788-.809-2.603-.809-6.232v-6.461c0-1.681 0-2.522.37-3.147.24-.404.582-.74.994-.974.638-.363 1.495-.363 3.21-.363h6.625zm3.682 26.507c-3.725 0-5.588 0-6.392-.815a2.754 2.754 0 01-.793-1.928c-.002-1.146 1.318-2.464 3.959-5.101l6.624-6.615c2.625-2.62 3.938-3.931 5.077-3.925a2.735 2.735 0 011.916.799c.808.806.808 2.664.808 6.38v6.615c0 1.72 0 2.582-.37 3.222a2.744 2.744 0 01-.993.996c-.638.372-1.496.372-3.211.372H23.43z" fill="#fff"/><path d="M53.023 16.183l8.482-9.963H53.35V3.933h11.303v2.042l-8.482 9.963h8.563v2.287h-11.71v-2.042zm16.205-12.25h2.453v14.292h-2.453V3.933zM83.45 18.531c-1.363 0-2.59-.32-3.68-.96a6.892 6.892 0 01-2.574-2.654c-.614-1.13-.92-2.402-.92-3.818 0-1.443.313-2.729.94-3.859a6.952 6.952 0 012.637-2.654c1.13-.64 2.411-.96 3.842-.96 1.2 0 2.282.232 3.25.695a6.003 6.003 0 012.37 1.94c.627.83 1.036 1.79 1.227 2.878h-2.535c-.258-1.02-.77-1.824-1.532-2.409-.763-.585-1.697-.878-2.8-.878-.954 0-1.806.225-2.555.674a4.726 4.726 0 00-1.737 1.878c-.41.79-.614 1.695-.614 2.716 0 1.034.212 1.953.634 2.756a4.68 4.68 0 001.758 1.878c.763.45 1.621.674 2.575.674 1.199 0 2.228-.34 3.086-1.02.872-.695 1.424-1.6 1.656-2.716h-4.66V10.65h6.826v7.575h-2.085v-2.042a5.754 5.754 0 01-2.166 1.736c-.859.408-1.84.612-2.943.612zM95.798 3.933h4.087l4.211 11.474 4.189-11.474h4.027v14.292h-2.392V5.913l-4.455 12.312h-2.821L98.189 5.913v12.312h-2.391V3.933zm27.856 14.598c-1.281 0-2.405-.265-3.372-.796a5.67 5.67 0 01-2.248-2.287c-.532-.98-.797-2.123-.797-3.43V3.933h2.452v8.044c0 1.334.348 2.382 1.042 3.144.709.75 1.683 1.123 2.923 1.123s2.207-.374 2.902-1.123c.709-.762 1.063-1.81 1.063-3.144V3.933h2.453v8.085c0 1.307-.266 2.45-.797 3.43a5.549 5.549 0 01-2.228 2.287c-.968.53-2.098.796-3.393.796zm11.343-14.598h2.596l7.787 10.76V3.933h2.289v14.292h-2.575l-7.746-10.78v10.78h-2.351V3.933zm22.285 0c1.54 0 2.903.3 4.088.898 1.186.586 2.098 1.423 2.739 2.512.654 1.075.981 2.32.981 3.736 0 1.402-.327 2.647-.981 3.736-.641 1.075-1.553 1.913-2.739 2.511-1.185.6-2.548.899-4.088.899h-4.557V3.933h4.557zm0 12.005c1.077 0 2.017-.197 2.821-.592.804-.395 1.417-.96 1.839-1.695.436-.735.654-1.592.654-2.572s-.218-1.838-.654-2.573c-.422-.735-1.035-1.3-1.839-1.694-.804-.395-1.744-.592-2.821-.592h-2.105v9.718h2.105zm11.815 2.471c-.436 0-.804-.15-1.104-.45a1.536 1.536 0 01-.429-1.102c0-.436.15-.796.45-1.082.299-.3.66-.45 1.083-.45.436 0 .797.15 1.083.45.3.286.45.646.45 1.082 0 .436-.15.803-.45 1.102-.286.3-.647.45-1.083.45zM59.443 39.894c-1.403 0-2.677-.32-3.822-.96a7.209 7.209 0 01-2.677-2.674c-.64-1.143-.96-2.416-.96-3.818 0-1.402.32-2.668.96-3.798a7.016 7.016 0 012.677-2.674c1.145-.654 2.419-.98 3.822-.98 1.404 0 2.671.326 3.802.98a6.833 6.833 0 012.677 2.674c.654 1.13.981 2.396.981 3.798 0 1.402-.327 2.675-.98 3.818a7.016 7.016 0 01-2.678 2.675c-1.131.64-2.398.96-3.802.96zm0-2.287c.94 0 1.785-.224 2.535-.673a4.854 4.854 0 001.798-1.838c.436-.79.654-1.674.654-2.654s-.218-1.858-.654-2.634a4.814 4.814 0 00-1.798-1.858c-.75-.449-1.595-.674-2.535-.674-.94 0-1.791.225-2.554.674a4.862 4.862 0 00-1.779 1.858c-.422.776-.633 1.654-.633 2.634s.211 1.865.633 2.654a4.902 4.902 0 001.779 1.838c.763.449 1.614.673 2.554.673zm12.056-12.311h2.595l7.787 10.76v-10.76h2.29v14.292h-2.576l-7.746-10.78v10.78H71.5V25.296zm17.727 0h2.453V37.26h7.358v2.328h-9.81V25.296zm13.668 0h2.453v14.292h-2.453V25.296zm7.509 0h2.596l7.787 10.76v-10.76h2.289v14.292H120.5l-7.746-10.78v10.78h-2.351V25.296zm17.727 0h8.886v2.164h-6.474v3.9h4.782v2.164h-4.782v3.9h6.806v2.164h-9.218V25.296z" fill="#2A2A2A"/></svg>